<?xml version="1.0" encoding="utf-8"?>
<svg version="1.1" xmlns="http://www.w3.org/2000/svg" xmlns:xlink="http://www.w3.org/1999/xlink" x="0px" y="0px" viewBox="0 0 1024 1024" enable-background="new 0 0 1024 1024" xml:space="preserve">
<rect width="1024" height="1024" x="0" y="0" fill="#ffffff" />
<g transform="translate(0 128)">

 
 <g id="logo-group" stroke-width="0" stroke-miterlimit="2" transform="translate(-86.182 -64.637) scale(1.1683)">
  <path id="path338467" style="font-variant-ligatures:none" d="m298.5 373.39c0.54-1.782 1.404-3.402 2.538-4.806 1.08-1.404 2.484-2.592 4.104-3.456s3.51-1.35 5.67-1.35c0.972 0 1.944 0.108 2.97 0.324 0.972 0.216 1.944 0.594 2.916 1.08 0.918 0.54 1.836 1.188 2.646 1.998 0.81 0.864 1.512 1.89 2.106 3.078l3.834-2.484c-1.188-2.484-3.024-4.482-5.454-6.048-2.484-1.512-5.4-2.322-8.802-2.322-2.916 0-5.454 0.594-7.722 1.674-2.322 1.134-4.212 2.592-5.778 4.428s-2.754 3.888-3.564 6.156c-0.594 1.62-0.918 3.24-1.08 4.806h4.914c0.162-1.026 0.378-2.052 0.702-3.078zm23.436 13.77c-0.54 1.188-1.242 2.214-2.106 3.078s-1.782 1.566-2.7 2.106c-1.026 0.54-1.998 0.972-3.078 1.188-1.08 0.27-2.106 0.378-3.078 0.378-1.944 0-3.672-0.378-5.292-1.242-1.62-0.81-3.024-1.944-4.212-3.348-1.242-1.404-2.16-2.97-2.808-4.806-0.432-1.134-0.702-2.268-0.864-3.51h-4.914c0.216 1.62 0.594 3.186 1.188 4.752 0.864 2.376 2.106 4.482 3.726 6.318s3.51 3.348 5.724 4.482c2.16 1.188 4.59 1.728 7.236 1.728 1.458 0 2.97-0.162 4.536-0.594 1.512-0.378 2.97-0.918 4.374-1.728 1.404-0.702 2.646-1.674 3.726-2.754s1.944-2.376 2.592-3.834z" fill="#00ccff"/>
  <path id="path338469" style="font-variant-ligatures:none" d="m342.26 398.5c2.43 0 4.698-0.54 6.75-1.674s3.672-2.754 4.968-4.914l0.108 3.294c0 0.864 0.324 1.566 0.972 2.106s1.404 0.81 2.376 0.81h0.864c0.324 0 0.756-0.054 1.296-0.162v-4.104c-1.026 0-1.512-0.594-1.512-1.728v-22.356h-4.752v17.658c-0.864 2.16-2.106 3.888-3.834 5.13s-3.51 1.836-5.454 1.836c-3.996 0-5.994-2.862-5.994-8.64v-15.984h-4.752v16.902c0 3.942 0.756 6.912 2.268 8.856 1.512 1.998 3.726 2.97 6.696 2.97z" fill="#00ccff"/>
  <path id="path338471" style="font-variant-ligatures:none" d="m383.2 373.93v-4.32c-0.216 0-0.432-0.054-0.648-0.054h-0.918c-1.836 0.162-3.51 0.864-5.076 2.052-1.62 1.188-2.862 2.754-3.834 4.698v-6.534h-4.428v28.188h4.752v-17.388c0.756-2.052 1.998-3.618 3.834-4.806 1.836-1.134 3.942-1.728 6.318-1.836z" fill="#00ccff"/>
  <path id="path338473" style="font-variant-ligatures:none" d="m405.07 373.93v-4.32c-0.216 0-0.432-0.054-0.64799-0.054h-0.91801c-1.836 0.162-3.51 0.864-5.076 2.052-1.62 1.188-2.862 2.754-3.834 4.698v-6.534h-4.428v28.188h4.752v-17.388c0.756-2.052 1.998-3.618 3.834-4.806 1.836-1.134 3.942-1.728 6.318-1.836z" fill="#00ccff"/>
  <path id="path338475" style="font-variant-ligatures:none" d="m423.87 398.5c1.404 0 2.754-0.162 4.05-0.54 1.296-0.324 2.43-0.81 3.51-1.458s1.998-1.404 2.808-2.268 1.458-1.782 1.944-2.862l-4.104-1.134c-0.324 0.756-0.756 1.404-1.296 1.944-0.54 0.594-1.188 1.08-1.89 1.458-0.756 0.432-1.512 0.756-2.322 0.972-0.864 0.216-1.674 0.324-2.538 0.324-1.242 0-2.43-0.216-3.51-0.702-1.08-0.432-2.052-1.08-2.916-1.944-0.864-0.81-1.566-1.782-2.106-2.97-0.54-1.134-0.864-2.43-0.972-3.834h23.382c0-0.162 0.054-0.432 0.054-0.756s0.054-0.648 0.054-1.08c0-1.836-0.378-3.672-1.026-5.4s-1.62-3.294-2.808-4.59c-1.242-1.296-2.754-2.376-4.482-3.186-1.728-0.756-3.672-1.188-5.778-1.188-2.16 0-4.104 0.432-5.832 1.188-1.782 0.756-3.294 1.836-4.59 3.132-1.296 1.35-2.268 2.916-2.97 4.644-0.702 1.782-1.026 3.672-1.026 5.616 0 1.998 0.324 3.888 1.026 5.67s1.674 3.348 2.97 4.644c1.242 1.35 2.754 2.43 4.536 3.186 1.728 0.756 3.672 1.134 5.832 1.134zm9.666-16.524h-19.116c0.108-1.296 0.378-2.538 0.918-3.672 0.54-1.08 1.188-2.052 2.052-2.862s1.836-1.458 2.97-1.89c1.08-0.432 2.268-0.702 3.564-0.702 1.242 0 2.43 0.27 3.564 0.702 1.08 0.432 2.052 1.08 2.916 1.836 0.864 0.81 1.566 1.782 2.106 2.916s0.918 2.376 1.026 3.672z" fill="#00ccff"/>
  <path id="path338477" style="font-variant-ligatures:none" d="m470.07 397.96v-16.848c0-1.674-0.162-3.24-0.432-4.698-0.27-1.404-0.702-2.646-1.35-3.726s-1.512-1.89-2.592-2.484-2.43-0.918-4.05-0.918c-2.484 0-4.806 0.594-6.912 1.782s-3.726 2.808-4.806 4.752v-6.048h-4.32v28.188h4.752v-17.01c0.324-1.08 0.81-2.052 1.458-2.97 0.648-0.864 1.404-1.674 2.268-2.322s1.782-1.134 2.754-1.512 1.944-0.594 2.916-0.594c1.836 0 3.24 0.702 4.158 2.052 0.918 1.404 1.404 3.564 1.404 6.588v15.768z" fill="#00ccff"/>
  <path id="path338479" style="font-variant-ligatures:none" d="m493.97 396.56-1.134-3.78c-0.324 0.216-0.864 0.432-1.62 0.756s-1.62 0.432-2.538 0.432c-0.864 0-1.566-0.216-2.16-0.702-0.648-0.432-0.972-1.188-1.026-2.268v-17.496h6.318v-3.726h-6.318v-9.396h-4.752v9.396h-3.834v3.726h3.834v18.954c0 2.052 0.594 3.51 1.89 4.482 1.242 0.972 2.754 1.404 4.482 1.404 0.756 0 1.458-0.054 2.16-0.162s1.35-0.27 1.944-0.486 1.134-0.378 1.62-0.594c0.432-0.216 0.81-0.378 1.134-0.54z" fill="#00ccff"/>
  <path id="path338481" style="font-variant-ligatures:none" d="m525.57 392.67c-1.674-0.756-3.078-1.836-4.212-3.24-1.188-1.404-2.16-2.97-2.808-4.806-0.702-1.836-1.026-3.726-1.026-5.832 0-1.89 0.27-3.78 0.918-5.616 0.594-1.836 1.458-3.402 2.592-4.806 1.08-1.404 2.43-2.484 4.05-3.348 1.566-0.864 3.294-1.296 5.292-1.296 2.376 0 4.482 0.54 6.426 1.62 1.89 1.08 3.402 2.754 4.59 4.968l3.726-2.592c-1.296-2.43-3.132-4.482-5.508-6.048-2.376-1.512-5.454-2.322-9.126-2.322-2.592 0-4.968 0.54-7.128 1.566-2.214 1.08-4.104 2.484-5.67 4.266-1.62 1.782-2.862 3.834-3.726 6.156-0.918 2.322-1.35 4.752-1.35 7.344 0 2.538 0.432 4.914 1.35 7.236 0.918 2.376 2.16 4.428 3.78 6.264 1.566 1.836 3.402 3.294 5.616 4.374 2.16 1.134 4.536 1.674 7.128 1.674 2.7 0 5.184-0.648 7.506-2.052v-4.536c-2.268 1.512-4.644 2.214-7.128 2.214-1.944 0-3.672-0.378-5.292-1.188zm8.316-13.824v3.672h8.262v15.444h4.104v-19.116z"/>
  <path id="path338483" style="font-variant-ligatures:none" d="m555.29 358.54v33.858c0 1.89 0.486 3.348 1.566 4.374 1.08 1.08 2.538 1.566 4.374 1.566 0.81 0 1.782-0.108 2.862-0.324s1.998-0.486 2.808-0.81l-0.756-3.834c-0.486 0.216-0.972 0.378-1.512 0.486s-1.026 0.162-1.404 0.162c-1.026 0-1.836-0.27-2.376-0.864s-0.81-1.404-0.81-2.484v-32.13z"/>
  <path id="path338485" style="font-variant-ligatures:none" d="m572.83 397.96h4.752v-28.188h-4.752zm0-33.48h4.752v-5.94h-4.752z"/>
  <path id="path338487" style="font-variant-ligatures:none" d="m630.03 397.96v-16.848c0-1.674-0.162-3.24-0.432-4.698-0.324-1.404-0.756-2.646-1.404-3.726s-1.566-1.89-2.646-2.484-2.43-0.918-4.05-0.918c-4.644 0-8.262 2.322-10.746 6.858-0.324-1.998-1.188-3.618-2.592-4.914s-3.24-1.944-5.616-1.944c-2.322 0-4.374 0.594-6.21 1.728s-3.348 2.754-4.482 4.806v-6.048h-4.32v28.188h4.752v-17.01c0.648-2.214 1.728-3.996 3.294-5.346 1.512-1.35 3.24-2.052 5.184-2.052 1.836 0 3.24 0.702 4.212 2.052 0.918 1.404 1.404 3.564 1.404 6.588v15.768h4.752v-16.956c0.648-2.16 1.728-3.942 3.24-5.346s3.294-2.106 5.238-2.106c1.836 0 3.24 0.702 4.212 2.106s1.458 3.618 1.458 6.534v15.768z"/>
  <path id="path338489" style="font-variant-ligatures:none" d="m654.84 398.5c1.836 0 3.564-0.378 5.13-1.134 1.512-0.756 2.862-1.836 3.996-3.132 1.08-1.296 1.944-2.862 2.592-4.644 0.59399-1.782 0.918-3.672 0.918-5.724 0-1.89-0.378-3.726-1.026-5.508-0.648-1.728-1.566-3.294-2.754-4.644s-2.592-2.43-4.212-3.24c-1.62-0.756-3.402-1.188-5.346-1.188-2.16 0-4.158 0.54-5.94 1.62s-3.24 2.43-4.32 4.158v-5.292h-4.212v39.69h4.752v-17.064c1.026 1.782 2.43 3.24 4.212 4.374 1.782 1.188 3.834 1.728 6.21 1.728zm-1.458-4.104c-0.97201 0-1.944-0.162-2.808-0.486-0.91801-0.324-1.782-0.81-2.538-1.404-0.81-0.594-1.512-1.296-2.106-2.106-0.64801-0.81-1.134-1.674-1.512-2.646v-8.046c0.16199-0.864 0.54-1.674 1.134-2.43 0.59401-0.756 1.296-1.458 2.106-1.998 0.81001-0.54 1.674-1.026 2.592-1.35s1.836-0.54 2.7-0.54c1.35 0 2.592 0.324 3.78 0.864s2.214 1.296 3.078 2.268 1.512 2.052 2.052 3.348c0.48601 1.296 0.75601 2.592 0.75601 3.996 0 1.35-0.216 2.646-0.648 3.888-0.43201 1.296-1.08 2.43-1.89 3.402-0.81001 0.972-1.782 1.782-2.916 2.376s-2.376 0.864-3.78 0.864z"/>
  <path id="path338491" style="font-variant-ligatures:none" d="m685.44 398.5c3.402 0 6.102-0.756 8.154-2.322 1.998-1.512 3.024-3.618 3.024-6.264 0-1.188-0.27-2.16-0.702-3.024-0.432-0.81-1.134-1.512-2.052-2.16-0.918-0.594-2.052-1.134-3.456-1.566s-3.024-0.918-4.86-1.35c-1.188-0.27-2.214-0.54-3.078-0.81-0.864-0.216-1.512-0.54-2.052-0.864s-0.972-0.702-1.188-1.134-0.324-0.972-0.324-1.62c0-1.62 0.594-2.754 1.782-3.51s2.7-1.134 4.428-1.134c1.512 0 3.024 0.27 4.536 0.81 1.458 0.54 2.808 1.296 3.996 2.322l2.16-2.862c-1.296-1.08-2.808-1.998-4.644-2.7-1.836-0.648-3.834-1.026-5.94-1.026-1.512 0-2.97 0.216-4.266 0.594s-2.43 0.918-3.402 1.674-1.782 1.674-2.322 2.754-0.81 2.322-0.81 3.726c0 1.134 0.162 2.052 0.54 2.808 0.324 0.756 0.918 1.404 1.728 1.944 0.756 0.54 1.782 1.026 3.024 1.404 1.188 0.432 2.646 0.81 4.374 1.242 1.296 0.324 2.484 0.648 3.51 0.918 0.972 0.324 1.836 0.648 2.484 0.972 0.648 0.378 1.134 0.81 1.458 1.296s0.486 1.08 0.486 1.728c0 1.512-0.648 2.646-1.836 3.456s-2.808 1.188-4.86 1.188c-1.836 0-3.618-0.27-5.238-0.918-1.674-0.648-3.348-1.566-4.968-2.862l-2.052 3.186c1.566 1.35 3.456 2.376 5.67 3.078 2.16 0.702 4.428 1.026 6.696 1.026z"/>
  <path id="path338493" style="font-variant-ligatures:none" d="m716.97 398.5c1.404 0 2.754-0.162 4.05-0.54 1.296-0.324 2.43-0.81 3.51-1.458s1.998-1.404 2.808-2.268 1.458-1.782 1.944-2.862l-4.104-1.134c-0.324 0.756-0.756 1.404-1.296 1.944-0.54 0.594-1.188 1.08-1.89 1.458-0.756 0.432-1.512 0.756-2.322 0.972-0.864 0.216-1.674 0.324-2.538 0.324-1.242 0-2.43-0.216-3.51-0.702-1.08-0.432-2.052-1.08-2.916-1.944-0.864-0.81-1.566-1.782-2.106-2.97-0.54-1.134-0.864-2.43-0.972-3.834h23.382c0-0.162 0.054-0.432 0.054-0.756s0.054-0.648 0.054-1.08c0-1.836-0.378-3.672-1.026-5.4s-1.62-3.294-2.808-4.59c-1.242-1.296-2.754-2.376-4.482-3.186-1.728-0.756-3.672-1.188-5.778-1.188-2.16 0-4.104 0.432-5.832 1.188-1.782 0.756-3.294 1.836-4.59 3.132-1.296 1.35-2.268 2.916-2.97 4.644-0.702 1.782-1.026 3.672-1.026 5.616 0 1.998 0.324 3.888 1.026 5.67s1.674 3.348 2.97 4.644c1.242 1.35 2.754 2.43 4.536 3.186 1.728 0.756 3.672 1.134 5.832 1.134zm9.666-16.524h-19.116c0.108-1.296 0.378-2.538 0.918-3.672 0.54-1.08 1.188-2.052 2.052-2.862s1.836-1.458 2.97-1.89c1.08-0.432 2.268-0.702 3.564-0.702 1.242 0 2.43 0.27 3.564 0.702 1.08 0.432 2.052 1.08 2.916 1.836 0.864 0.81 1.566 1.782 2.106 2.916s0.918 2.376 1.026 3.672z"/>
 </g>

</g>
</svg>